<!DOCTYPE svg PUBLIC "-//W3C//DTD SVG 20010904//EN" "http://www.w3.org/TR/2001/REC-SVG-20010904/DTD/svg10.dtd">
<svg version="1.0" xmlns="http://www.w3.org/2000/svg" width="400px" height="92px" viewBox="0 0 4000 920" preserveAspectRatio="xMidYMid meet">
<g id="layer101" fill="#0e2a44" stroke="none">
 <path d="M0 460 l0 -460 2000 0 2000 0 0 460 0 460 -2000 0 -2000 0 0 -460z"/>
 </g>
<g id="layer102" fill="#f65e66" stroke="none">
 <path d="M0 460 l0 -460 2000 0 2000 0 0 460 0 460 -2000 0 -2000 0 0 -460z m1559 177 c44 -22 64 -61 64 -121 0 -93 -54 -144 -139 -131 l-44 6 0 -65 c0 -36 -2 -66 -4 -66 -2 0 -11 3 -20 6 -14 5 -16 32 -16 189 0 207 -7 192 85 194 28 0 61 -5 74 -12z m299 7 c20 -6 22 -12 22 -78 -1 -85 -13 -143 -35 -165 -11 -11 -34 -16 -75 -16 -63 0 -73 4 -65 26 4 10 18 13 49 11 46 -4 76 14 76 47 0 15 -10 19 -55 23 -68 6 -95 27 -95 77 0 41 6 53 35 69 21 12 106 16 143 6z m570 0 c22 -6 22 -8 22 -196 0 -175 -1 -189 -17 -186 -15 3 -19 16 -21 65 l-3 62 -43 -5 c-82 -12 -136 40 -136 131 0 59 23 103 63 120 34 15 97 19 135 9z m182 2 c0 -2 3 -11 6 -19 3 -9 -3 -16 -15 -20 -20 -5 -21 -12 -21 -177 l0 -171 -22 3 c-23 3 -23 6 -26 151 -3 167 4 207 39 224 25 13 39 16 39 9z m-610 -116 l0 -110 38 0 c67 0 77 15 80 124 4 88 6 96 24 96 19 0 20 -6 16 -105 -3 -93 -6 -107 -26 -127 -19 -19 -33 -23 -85 -23 -100 1 -97 -4 -97 135 l0 120 25 0 25 0 0 -110z"/>
 <path d="M1447 603 c-4 -3 -7 -41 -7 -83 0 -73 1 -77 25 -88 54 -25 100 -3 111 53 13 74 -21 125 -84 125 -21 0 -42 -3 -45 -7z"/>
 <path d="M1732 598 c-33 -33 -4 -68 55 -68 l43 0 0 40 0 40 -43 0 c-24 0 -48 -5 -55 -12z"/>
 <path d="M2303 588 c-30 -33 -37 -79 -19 -122 17 -40 52 -55 95 -40 25 9 26 12 26 94 l0 85 -40 3 c-32 2 -45 -2 -62 -20z"/>
 </g>
<g id="layer103" fill="#ffffff" stroke="none">
 <path d="M0 460 l0 -460 2000 0 2000 0 0 460 0 460 -2000 0 -2000 0 0 -460z m1152 264 c106 -36 182 -145 181 -259 -1 -154 -120 -271 -273 -269 -77 2 -125 20 -182 72 -93 84 -114 209 -55 324 63 122 199 177 329 132z m427 -100 c63 -53 65 -152 5 -212 -32 -32 -38 -34 -84 -30 l-50 5 0 -64 c0 -61 -1 -64 -22 -61 -23 3 -23 5 -26 183 -1 98 0 185 2 192 4 9 28 13 75 13 60 0 74 -3 100 -26z m296 -87 c0 -107 -1 -109 -28 -133 -44 -38 -147 -33 -147 7 0 17 5 18 40 13 47 -8 90 15 90 46 0 17 -7 20 -51 20 -43 0 -55 5 -80 29 -33 33 -35 50 -14 91 19 37 26 39 115 37 l75 -2 0 -108z m125 3 l0 -110 27 -6 c37 -10 76 15 84 51 4 17 7 63 8 103 1 65 3 72 21 72 19 0 20 -7 20 -106 0 -103 -1 -106 -29 -135 -31 -30 -77 -37 -150 -23 l-31 7 0 128 0 129 25 0 25 0 0 -110z m438 104 c22 -6 22 -9 22 -158 0 -186 -6 -226 -31 -226 -17 0 -19 8 -19 64 l0 65 -53 -6 c-49 -5 -57 -3 -86 23 -47 43 -60 126 -29 187 24 46 120 71 196 51z m179 -10 c3 -9 -3 -21 -16 -30 -20 -14 -21 -23 -21 -180 l0 -164 -25 0 -25 0 0 169 c0 155 2 170 21 195 23 29 56 34 66 10z"/>
 <path d="M965 552 l-70 -27 -3 -47 -3 -47 63 25 c35 14 71 28 81 31 13 4 17 16 17 49 0 24 -3 44 -7 44 -5 -1 -39 -13 -78 -28z"/>
 <path d="M1070 537 c0 -40 3 -46 28 -55 15 -5 51 -19 80 -31 l53 -21 -3 46 c-3 46 -3 46 -61 69 -102 42 -97 42 -97 -8z"/>
 <path d="M1010 466 c-19 -8 -53 -21 -75 -30 l-40 -17 83 -34 82 -33 83 33 c76 31 80 34 57 43 -14 6 -49 19 -78 31 -60 24 -64 24 -112 7z"/>
 <path d="M1450 525 c0 -84 1 -86 27 -96 64 -24 115 40 94 117 -13 45 -36 63 -83 64 l-38 0 0 -85z"/>
 <path d="M1736 594 c-9 -8 -16 -19 -16 -24 0 -21 34 -40 71 -40 39 0 39 0 39 40 0 40 0 40 -39 40 -23 0 -46 -7 -55 -16z"/>
 <path d="M2323 600 c-30 -12 -43 -41 -43 -94 0 -67 44 -99 103 -77 28 11 28 11 25 93 l-3 83 -30 2 c-16 1 -40 -2 -52 -7z"/>
 </g>

</svg>